# xmcd CD database file
# Copyright (C) 1993-1998 Ti Kan
#
# Track frame offsets:
#	182
#	17420
#	41522
#	59270
#	76590
#	88312
#	102962
#	124952
#	145587
#	167362
#	194682
#	217765
#	232830
#	248230
#	260512
#
# Disc length: 3674 seconds
#
# Revision: 1
# Processed by: cddbd v1.4b41PL1 Copyright (c) Steve Scherf et al.
# Submitted via: CDValet v3.31 - Copyright (c) 1997 Greg Leichner
#
DISCID=bc0e580f
DTITLE=The Lamont Cranston Band - The Best Of The Lamont Cranst
DTITLE=on Band
DYEAR=1900
DGENRE=
TTITLE0=Upper Mississippi Shakedown
TTITLE1=E Jam
TTITLE2=Takin' A Chance
TTITLE3=Keep On Drivin'
TTITLE4=Lost In The Shuffle
TTITLE5=Take Out Some Insurance
TTITLE6=Tell Me What Her Name Is
TTITLE7=Lickin' Stick
TTITLE8=Route 66
TTITLE9=The Darker Side
TTITLE10=Two Trains Runnin'
TTITLE11=Oughta Be A Law
TTITLE12=Workin' For Rosie
TTITLE13=Seven
TTITLE14=(Ain't Nobody Here But Us) Chickens
EXTD=
EXTT0=
EXTT1=
EXTT2=
EXTT3=
EXTT4=
EXTT5=
EXTT6=
EXTT7=
EXTT8=
EXTT9=
EXTT10=
EXTT11=
EXTT12=
EXTT13=
EXTT14=
PLAYORDER=
